<svg width="72" height="72" viewBox="0 0 72 72" fill="none" xmlns="http://www.w3.org/2000/svg">
<path d="M63.2701 20.9401C60.7201 18.1201 56.4601 16.7101 50.2801 16.7101H49.5601V16.5901C49.5601 11.5501 49.5601 5.31006 38.2801 5.31006H33.7201C22.4401 5.31006 22.4401 11.5801 22.4401 16.5901V16.7401H21.7201C15.5101 16.7401 11.2801 18.1501 8.73011 20.9701C5.76011 24.2701 5.85011 28.7101 6.15011 31.7401L6.18011 31.9501L6.45757 34.8633C6.47183 35.0131 6.55224 35.1481 6.67776 35.2311C7.23545 35.5996 8.83801 36.65 9.72011 37.1401C10.1401 37.4101 10.5901 37.6501 11.0401 37.8901C16.1701 40.7101 21.8101 42.6001 27.5401 43.5301C27.8101 46.3501 29.0401 49.6501 35.6101 49.6501C42.1801 49.6501 43.4701 46.3801 43.6801 43.4701C49.8001 42.4801 55.7101 40.3501 61.0501 37.2301C61.2301 37.1401 61.3501 37.0501 61.5001 36.9601C62.8163 36.2161 64.187 35.2812 65.4041 34.3895C65.5165 34.3071 65.5889 34.1813 65.6043 34.0428L65.7001 33.1801L65.8501 31.7701C65.8801 31.5901 65.8801 31.4401 65.9101 31.2301C66.1501 28.2001 66.0901 24.0601 63.2701 20.9401ZM39.2701 41.4901C39.2701 44.6701 39.2701 45.1501 35.5801 45.1501C31.8901 45.1501 31.8901 44.5801 31.8901 41.5201V37.7401H39.2701V41.4901ZM26.7301 16.7101V16.5901C26.7301 11.4901 26.7301 9.60006 33.7201 9.60006H38.2801C45.2701 9.60006 45.2701 11.5201 45.2701 16.5901V16.7401H26.7301V16.7101Z" fill="#DCF6F3"/>
<path d="M64.236 40.4247C64.588 40.2531 64.9944 40.5324 64.959 40.9224L63.72 54.5702C63.09 60.5702 60.63 66.6901 47.43 66.6901H24.57C11.37 66.6901 8.91002 60.5702 8.28002 54.6002L7.09931 41.6123C7.06427 41.2269 7.461 40.9475 7.81219 41.1102C10.4517 42.3332 19.0355 46.2267 23.559 47.2815C23.7244 47.3201 23.8557 47.4372 23.9195 47.5945C25.6302 51.8107 29.6684 54.0602 35.61 54.0602C41.4928 54.0602 45.5875 51.7242 47.3004 47.5047C47.3644 47.3472 47.4955 47.2302 47.6611 47.1916C52.4496 46.076 61.4992 41.7593 64.236 40.4247Z" fill="#DCF6F3"/>
</svg>
