<svg width="213" height="179" viewBox="0 0 213 179" fill="none" xmlns="http://www.w3.org/2000/svg">
<circle cx="3.94444" cy="3.94444" r="3.94444" fill="#FFA17A"/>
<circle cx="3.94444" cy="38.1296" r="3.94444" fill="#FFA17A"/>
<circle cx="3.94444" cy="72.3148" r="3.94444" fill="#FFA17A"/>
<circle cx="3.94444" cy="106.5" r="3.94444" fill="#FFA17A"/>
<circle cx="3.94444" cy="140.685" r="3.94444" fill="#FFA17A"/>
<circle cx="3.94444" cy="174.87" r="3.94444" fill="#FFA17A"/>
<circle cx="38.13" cy="3.94444" r="3.94444" fill="#FFA17A"/>
<circle cx="38.13" cy="38.1296" r="3.94444" fill="#FFA17A"/>
<circle cx="38.13" cy="72.3148" r="3.94444" fill="#FFA17A"/>
<circle cx="38.13" cy="106.5" r="3.94444" fill="#FFA17A"/>
<circle cx="38.13" cy="140.685" r="3.94444" fill="#FFA17A"/>
<circle cx="38.13" cy="174.87" r="3.94444" fill="#FFA17A"/>
<circle cx="72.3146" cy="3.94444" r="3.94444" fill="#FFA17A"/>
<circle cx="72.3146" cy="38.1296" r="3.94444" fill="#FFA17A"/>
<circle cx="72.3146" cy="72.3148" r="3.94444" fill="#FFA17A"/>
<circle cx="72.3146" cy="106.5" r="3.94444" fill="#FFA17A"/>
<circle cx="72.3146" cy="140.685" r="3.94444" fill="#FFA17A"/>
<circle cx="72.3146" cy="174.87" r="3.94444" fill="#FFA17A"/>
<circle cx="106.5" cy="3.94444" r="3.94444" fill="#FFA17A"/>
<circle cx="106.5" cy="38.1296" r="3.94444" fill="#FFA17A"/>
<circle cx="106.5" cy="72.3148" r="3.94444" fill="#FFA17A"/>
<circle cx="106.5" cy="106.5" r="3.94444" fill="#FFA17A"/>
<circle cx="106.5" cy="140.685" r="3.94444" fill="#FFA17A"/>
<circle cx="106.5" cy="174.87" r="3.94444" fill="#FFA17A"/>
<circle cx="140.686" cy="3.94444" r="3.94444" fill="#FFA17A"/>
<circle cx="140.686" cy="38.1296" r="3.94444" fill="#FFA17A"/>
<circle cx="140.686" cy="72.3148" r="3.94444" fill="#FFA17A"/>
<circle cx="140.686" cy="106.5" r="3.94444" fill="#FFA17A"/>
<circle cx="140.686" cy="140.685" r="3.94444" fill="#FFA17A"/>
<circle cx="140.686" cy="174.87" r="3.94444" fill="#FFA17A"/>
<circle cx="174.87" cy="3.94444" r="3.94444" fill="#FFA17A"/>
<circle cx="174.87" cy="38.1296" r="3.94444" fill="#FFA17A"/>
<circle cx="174.87" cy="72.3148" r="3.94444" fill="#FFA17A"/>
<circle cx="174.87" cy="106.5" r="3.94444" fill="#FFA17A"/>
<circle cx="174.87" cy="140.685" r="3.94444" fill="#FFA17A"/>
<circle cx="174.87" cy="174.87" r="3.94444" fill="#FFA17A"/>
<circle cx="209.056" cy="3.94444" r="3.94444" fill="#FFA17A"/>
<circle cx="209.056" cy="38.1296" r="3.94444" fill="#FFA17A"/>
<circle cx="209.056" cy="72.3148" r="3.94444" fill="#FFA17A"/>
<circle cx="209.056" cy="106.5" r="3.94444" fill="#FFA17A"/>
<circle cx="209.056" cy="140.685" r="3.94444" fill="#FFA17A"/>
<circle cx="209.056" cy="174.87" r="3.94444" fill="#FFA17A"/>
</svg>
