<svg width="72" height="72" viewBox="0 0 72 72" fill="none" xmlns="http://www.w3.org/2000/svg">
<path d="M58.53 17.55L40.71 7.26C37.8 5.58 34.2 5.58 31.26 7.26L13.47 17.55C10.56 19.23 8.76001 22.35 8.76001 25.74V46.26C8.76001 49.62 10.56 52.74 13.47 54.45L31.29 64.74C34.2 66.42 37.8 66.42 40.74 64.74L58.56 54.45C61.47 52.77 63.27 49.65 63.27 46.26V25.74C63.24 22.35 61.44 19.26 58.53 17.55ZM36 22.02C39.87 22.02 42.99 25.14 42.99 29.01C42.99 32.88 39.87 36 36 36C32.13 36 29.01 32.88 29.01 29.01C29.01 25.17 32.13 22.02 36 22.02ZM44.04 49.98H27.96C25.53 49.98 24.12 47.28 25.47 45.27C27.51 42.24 31.47 40.2 36 40.2C40.53 40.2 44.49 42.24 46.53 45.27C47.88 47.25 46.44 49.98 44.04 49.98Z" fill="#DCF6F3"/>
</svg>
