<svg width="72" height="72" viewBox="0 0 72 72" fill="none" xmlns="http://www.w3.org/2000/svg">
<path d="M52.59 23.31C52.38 23.28 52.17 23.28 51.96 23.31C47.31 23.16 43.62 19.35 43.62 14.67C43.62 9.9 47.49 6 52.29 6C57.06 6 60.96 9.87 60.96 14.67C60.93 19.35 57.24 23.16 52.59 23.31Z" fill="#DCF6F3"/>
<path d="M62.37 44.1002C59.01 46.3502 54.3 47.1902 49.95 46.6202C51.09 44.1602 51.69 41.4302 51.72 38.5502C51.72 35.5502 51.06 32.7002 49.8 30.2102C54.24 29.6102 58.95 30.4502 62.34 32.7002C67.08 35.8202 67.08 40.9502 62.37 44.1002Z" fill="#DCF6F3"/>
<path d="M19.32 23.31C19.53 23.28 19.74 23.28 19.95 23.31C24.6 23.16 28.29 19.35 28.29 14.67C28.29 9.87 24.42 6 19.62 6C14.85 6 10.98 9.87 10.98 14.67C10.98 19.35 14.67 23.16 19.32 23.31Z" fill="#DCF6F3"/>
<path d="M19.65 38.5498C19.65 41.4598 20.28 44.2198 21.42 46.7098C17.19 47.1598 12.78 46.2598 9.53999 44.1298C4.79999 40.9798 4.79999 35.8498 9.53999 32.6998C12.75 30.5398 17.28 29.6698 21.54 30.1498C20.31 32.6698 19.65 35.5198 19.65 38.5498Z" fill="#DCF6F3"/>
<path d="M36.36 47.61C36.12 47.58 35.85 47.58 35.58 47.61C30.06 47.43 25.65 42.9 25.65 37.32C25.68 31.62 30.27 27 36 27C41.7 27 46.32 31.62 46.32 37.32C46.29 42.9 41.91 47.43 36.36 47.61Z" fill="#DCF6F3"/>
<path d="M26.61 53.8199C22.08 56.8499 22.08 61.8299 26.61 64.8299C31.77 68.2799 40.23 68.2799 45.39 64.8299C49.92 61.7999 49.92 56.8199 45.39 53.8199C40.26 50.3699 31.8 50.3699 26.61 53.8199Z" fill="#DCF6F3"/>
</svg>
