<svg width="12" height="12" viewBox="0 0 12 12" fill="none" xmlns="http://www.w3.org/2000/svg">
<g clip-path="url(#clip0_0_169)">
<path d="M7.64683 2.1349C7.22874 1.68351 6.6448 1.43494 6.00026 1.43494C5.3523 1.43494 4.76642 1.68201 4.35026 2.1306C3.9296 2.58414 3.72464 3.20052 3.77276 3.86611C3.86816 5.17923 4.86739 6.24744 6.00026 6.24744C7.13314 6.24744 8.13065 5.17945 8.22755 3.86654C8.27632 3.20697 8.07007 2.59187 7.64683 2.1349Z" fill="#2D3748"/>
<path d="M9.78137 11.0594H2.21887C2.11989 11.0607 2.02186 11.0399 1.93192 10.9986C1.84198 10.9572 1.76239 10.8963 1.69895 10.8203C1.5593 10.6534 1.50301 10.4254 1.54469 10.1949C1.72602 9.18902 2.29192 8.34404 3.18137 7.75085C3.97157 7.22427 4.97252 6.93445 6.00012 6.93445C7.02772 6.93445 8.02867 7.22449 8.81887 7.75085C9.70832 8.34382 10.2742 9.1888 10.4555 10.1947C10.4972 10.4252 10.4409 10.6532 10.3013 10.8201C10.2379 10.8961 10.1583 10.9571 10.0684 10.9985C9.97841 11.0399 9.88037 11.0607 9.78137 11.0594Z" fill="#2D3748"/>
</g>
<defs>
<clipPath id="clip0_0_169">
<rect width="11" height="11" fill="white" transform="translate(0.500244 0.74762)"/>
</clipPath>
</defs>
</svg>
