<svg width="11" height="12" viewBox="0 0 11 12" fill="none" xmlns="http://www.w3.org/2000/svg">
<path d="M5.49976 1.77832C3.03571 1.77832 1.03101 3.78303 1.03101 6.24707C1.03101 8.71111 3.03571 10.7158 5.49976 10.7158C7.9638 10.7158 9.9685 8.71111 9.9685 6.24707C9.9685 3.78303 7.9638 1.77832 5.49976 1.77832ZM4.42081 4.28813C4.69302 3.99959 5.07608 3.84082 5.49976 3.84082C5.92343 3.84082 6.30306 4.00066 6.57634 4.2907C6.85327 4.58461 6.98798 4.97949 6.95618 5.40402C6.89259 6.24707 6.23946 6.93457 5.49976 6.93457C4.76005 6.93457 4.10563 6.24707 4.04333 5.40381C4.01175 4.97584 4.14624 4.57967 4.42081 4.28813ZM5.49976 10.0283C4.99497 10.0287 4.49526 9.92762 4.03026 9.73121C3.56525 9.5348 3.14442 9.24702 2.79272 8.88492C2.99415 8.59767 3.2508 8.35343 3.54769 8.16648C4.09532 7.81543 4.78841 7.62207 5.49976 7.62207C6.2111 7.62207 6.90419 7.81543 7.45118 8.16648C7.74831 8.35335 8.00519 8.59759 8.20679 8.88492C7.85512 9.24706 7.43429 9.53487 6.96928 9.73128C6.50427 9.92769 6.00455 10.0287 5.49976 10.0283Z" fill="#2D3748"/>
</svg>
